HIERARCHY
ROOT Hips
{
	OFFSET 0.00000 0.00000 0.00000
	CHANNELS 6 Xposition Yposition Zposition Zrotation Yrotation Xrotation 
	JOINT RightUpLegDummy
	{
		OFFSET 0 0 0
		CHANNELS 3 Zrotation Yrotation Xrotation
		JOINT RightUpLeg
		{
			OFFSET -3.52197 -3.41223 0.04002
			CHANNELS 3 Zrotation Yrotation Xrotation
			JOINT RightLeg
			{
				OFFSET 0.00006 -17.42390 1.60435
				CHANNELS 3 Zrotation Yrotation Xrotation
				JOINT RightFoot
				{
					OFFSET 0.06153 -16.50078 -1.63901
					CHANNELS 3 Zrotation Yrotation Xrotation
					JOINT RightToes
					{
						OFFSET 0.00298 -1.73825 3.34613
						CHANNELS 3 Zrotation Yrotation Xrotation
						End Site
						{
							OFFSET 0.00480 -0.05416 3.85043
						}
					}
				}
			}
		}
	}
	JOINT SpineDummy
	{
		OFFSET 0 0 0
		CHANNELS 3 Zrotation Yrotation Xrotation
		JOINT Spine
		{
			OFFSET 0.00000 4.68130 0.00000
			CHANNELS 3 Zrotation Yrotation Xrotation
			JOINT Spine1
			{
				OFFSET -0.00000 10.10138 0.05002
				CHANNELS 3 Zrotation Yrotation Xrotation
				JOINT HEadDummy
				{
					OFFSET 0 0 0
					CHANNELS 3 Zrotation Yrotation Xrotation
					JOINT Head
					{
						OFFSET -0.00000 3.43865 0.00438
						CHANNELS 3 Zrotation Yrotation Xrotation
						End Site
						{
							OFFSET -0.11417 5.02924 0.98962
						}
					}
				}
				JOINT LeftShoulder1Dummy
				{
					OFFSET 0 0 0
					CHANNELS 3 Zrotation Yrotation Xrotation
					JOINT LeftShoulder1
					{
						OFFSET 3.53937 -0.14262 -0.08662
						CHANNELS 3 Zrotation Yrotation Xrotation
						JOINT LeftArm
						{
							OFFSET 4.04833 -0.00133 0.12681
							CHANNELS 3 Zrotation Yrotation Xrotation
							JOINT LeftForeArm
							{
								OFFSET 10.33880 -0.01036 -0.55515
								CHANNELS 3 Zrotation Yrotation Xrotation
								JOINT LeftHand
								{
									OFFSET 8.69677 0.07543 0.40060
									CHANNELS 3 Zrotation Yrotation Xrotation
									End Site
									{
										OFFSET 5.28377 -0.21905 0.59205
									}
								}
							}
						}
					}
				}
				JOINT RightShoulderDummy
				{
					OFFSET 0 0 0
					CHANNELS 3 Zrotation Yrotation Xrotation
					JOINT RightShoulder
					{
						OFFSET -3.53937 -0.14262 -0.08660
						CHANNELS 3 Zrotation Yrotation Xrotation
						JOINT RightArm
						{
							OFFSET -4.04833 -0.00133 0.12683
							CHANNELS 3 Zrotation Yrotation Xrotation
							JOINT RightForeArm
							{
								OFFSET -10.37987 -0.01039 -0.55511
								CHANNELS 3 Zrotation Yrotation Xrotation
								JOINT RightHand
								{
									OFFSET -8.67398 0.07538 0.40058
									CHANNELS 3 Zrotation Yrotation Xrotation
									End Site
									{
										OFFSET -5.24810 -0.21916 0.59204
									}
								}
							}
						}
					}
				}
			}
		}
	}
	JOINT LeftUpLegDummy
	{
		OFFSET 0 0 0
		CHANNELS 3 Zrotation Yrotation Xrotation
		JOINT LeftUpLeg
		{
			OFFSET 3.52197 -3.41223 0.04002
			CHANNELS 3 Zrotation Yrotation Xrotation
			JOINT LeftLeg
			{
				OFFSET -0.00012 -17.42399 1.60337
				CHANNELS 3 Zrotation Yrotation Xrotation
				JOINT LeftFoot
				{
					OFFSET -0.09972 -16.50070 -1.63802
					CHANNELS 3 Zrotation Yrotation Xrotation
					JOINT LeftToes
					{
						OFFSET -0.01575 -1.73823 3.34611
						CHANNELS 3 Zrotation Yrotation Xrotation
						End Site
						{
							OFFSET 0.03150 -0.01868 3.85031
						}
					}
				}
			}
		}
	}
}
MOTION
Frames: 7
Frame Time: 0.033333
-4.8595 39.2471 -2.8924 -2.7070 -4.1532 -3.4997 0.0000 0.0000 0.0000 6.3695 0.0558 -1.0071 -4.2362 -10.5844 16.0505 -3.5518 -0.0169 -10.6213 0.0000 -0.0000 -0.0000 0.0000 0.0000 0.0000 1.0744 0.0634 2.5003 3.0293 -0.6709 3.9771 -0.0000 0.0000 -0.0000 7.2860 -16.8180 -14.7332 -0.0000 0.0000 -0.0000 -34.8493 -3.1432 2.7177 -44.8104 -15.2031 -16.5384 -11.0420 5.2013 45.2159 19.8715 -3.5403 -1.5102 -0.0000 0.0000 -0.0000 33.3431 4.9872 3.3410 29.2818 18.5809 -18.2493 9.1907 10.0240 7.6381 -9.3648 2.8142 -0.6385 0.0000 0.0000 0.0000 13.3006 9.0222 0.8442 5.0001 11.2423 17.1046 -6.6155 0.1567 -9.6252 0.0000 0.0000 -0.0000
-4.9986 39.2493 -2.8044 -2.4360 -3.7995 -3.4754 0.0000 0.0000 0.0000 6.3346 0.0548 -0.9206 -4.4127 -10.9240 16.1320 -3.6572 -0.0227 -10.8017 0.0000 -0.0000 -0.0000 0.0000 0.0000 0.0000 1.1472 0.0466 2.2311 3.0995 -0.7067 3.8691 -0.0000 0.0000 -0.0000 6.6805 -15.9788 -14.6411 -0.0000 0.0000 -0.0000 -34.9815 -3.1402 2.7254 -45.5131 -14.2715 -16.7508 -10.9494 5.2253 44.3531 22.3636 -3.4271 -1.6849 -0.0000 0.0000 -0.0000 33.3439 4.9749 3.3362 30.0136 18.1181 -19.3252 9.6768 7.7586 10.7997 -9.1825 2.6218 -0.6116 0.0000 0.0000 0.0000 13.3290 9.3358 1.1712 4.6098 10.6382 16.4380 -7.0462 0.1728 -9.4529 0.0000 0.0000 -0.0000
-5.1222 39.2511 -2.7180 -2.2492 -3.4870 -3.4961 0.0000 0.0000 0.0000 6.3312 -0.0251 -0.7441 -4.4807 -11.1761 16.1257 -3.8241 -0.0272 -10.9463 0.0000 -0.0000 -0.0000 0.0000 0.0000 0.0000 1.2492 -0.0555 1.9852 3.2404 -0.8502 3.8190 -0.0000 0.0000 -0.0000 6.2060 -15.0100 -14.6245 -0.0000 0.0000 -0.0000 -35.0370 -3.1351 2.7271 -45.5491 -13.7768 -17.5013 -10.7194 5.2721 42.6558 22.6407 -3.1255 -1.6511 -0.0000 0.0000 -0.0000 33.4734 4.9963 3.3558 30.9389 17.5142 -19.4993 9.8904 5.6934 13.3234 -9.5231 2.2138 -0.6049 0.0000 0.0000 0.0000 13.4805 9.6715 1.5913 4.1903 9.9321 15.7436 -7.8120 0.1972 -9.2638 0.0000 0.0000 -0.0000
-5.2311 39.2497 -2.6462 -2.1172 -3.2967 -3.5775 0.0000 0.0000 0.0000 6.3710 -0.0707 -0.5250 -4.5356 -11.3541 16.1210 -3.9794 -0.0318 -11.0787 0.0000 -0.0000 -0.0000 0.0000 0.0000 0.0000 1.3788 -0.1531 1.9059 3.4358 -0.9988 3.7375 -0.0000 0.0000 -0.0000 5.9483 -14.1940 -14.6624 -0.0000 0.0000 -0.0000 -34.9521 -3.1154 2.7133 -45.1261 -13.9249 -18.1098 -10.5309 5.2920 41.9486 20.7985 -2.8860 -1.4698 -0.0000 0.0000 -0.0000 33.7502 5.0449 3.3988 31.9181 16.7231 -19.0791 10.0441 3.7626 14.7190 -10.2553 1.9660 -0.6335 0.0000 0.0000 0.0000 13.6702 9.9420 2.0647 3.8552 9.3747 15.1180 -8.6307 0.2252 -9.0745 0.0000 0.0000 -0.0000
-5.3305 39.2457 -2.5942 -2.0219 -3.2127 -3.6432 0.0000 0.0000 0.0000 6.4651 -0.0139 -0.3800 -4.6390 -11.5162 16.1652 -4.0868 -0.0363 -11.1994 0.0000 -0.0000 -0.0000 0.0000 0.0000 0.0000 1.3773 -0.2359 1.9259 3.8357 -1.1714 3.6846 -0.0000 0.0000 -0.0000 5.9007 -13.4702 -14.8264 -0.0000 0.0000 -0.0000 -34.8051 -3.1038 2.6987 -44.5764 -14.5919 -18.3107 -10.3650 5.2589 43.3331 18.4017 -2.9671 -1.3060 -0.0000 0.0000 -0.0000 34.0616 5.0910 3.4441 32.9664 15.5390 -18.3938 10.3094 2.4530 15.5278 -10.6872 2.0647 -0.6690 0.0000 0.0000 0.0000 13.8467 10.1813 2.4478 3.6219 9.0056 14.6297 -9.2637 0.2499 -8.9129 0.0000 0.0000 -0.0000
-5.4205 39.2381 -2.5557 -1.9828 -3.1877 -3.6270 0.0000 0.0000 0.0000 6.6189 0.1202 -0.3592 -4.7640 -11.6863 16.2355 -4.1770 -0.0400 -11.2956 0.0000 -0.0000 -0.0000 0.0000 0.0000 0.0000 1.2156 -0.3545 1.8955 4.4504 -1.4260 3.6995 -0.0000 0.0000 -0.0000 5.9754 -12.5546 -15.1296 -0.0000 0.0000 -0.0000 -34.6611 -3.1294 2.6994 -44.1172 -15.3335 -18.2587 -10.2081 5.1986 45.6872 16.5937 -3.2471 -1.2120 -0.0000 0.0000 -0.0000 34.3774 5.1391 3.4910 34.0662 13.9094 -17.4153 10.6399 2.0060 16.3652 -10.4925 2.1765 -0.6659 0.0000 0.0000 0.0000 14.0044 10.2763 2.6449 3.5085 8.8616 14.3251 -9.7153 0.2676 -8.8110 0.0000 0.0000 -0.0000
-5.4929 39.2276 -2.5197 -1.9894 -3.3097 -3.5794 0.0000 0.0000 0.0000 6.7815 0.2613 -0.3785 -4.8308 -11.7286 16.3067 -4.2856 -0.0434 -11.3783 0.0000 -0.0000 -0.0000 0.0000 0.0000 0.0000 1.0939 -0.5052 1.7976 4.9940 -1.7028 3.7535 -0.0000 0.0000 -0.0000 6.1306 -11.4666 -15.4771 -0.0000 0.0000 -0.0000 -34.4942 -3.1627 2.7016 -43.8073 -15.7768 -18.0538 -10.1909 5.1570 47.1948 15.5523 -3.4087 -1.1539 -0.0000 0.0000 -0.0000 34.7927 5.2139 3.5579 35.0650 12.0930 -16.4348 10.9528 1.7870 17.6097 -10.1242 2.1011 -0.6356 0.0000 0.0000 0.0000 14.1089 10.0952 2.7623 3.5767 9.1063 14.2089 -9.9717 0.2756 -8.7823 0.0000 0.0000 -0.0000
